<svg xmlns="http://www.w3.org/2000/svg" width="69" height="7" fill="none"><path fill="#E2E2E2" fill-opacity=".4" d="M4.54 1.204H3.005V5.5h-.817V1.204H.664v-.68H4.54v.68zm3.09 3.151H6.068L5.729 5.5h-.854L6.495.523h.728L8.816 5.5h-.851L7.63 4.355zm-1.354-.704h1.152l-.57-1.969-.582 1.969zM12.63 5.5h-.823L10.19 2.075 10.187 5.5h-.831V.523h.834l1.606 3.412.007-3.412h.827V5.5zm4.122.646h-3.124V5.5h3.124v.646zm3.306-.646h-.824V1.535l-1.275.468v-.72l2.047-.76h.052V5.5zm5.332-1.531c-.023.241-.08.461-.171.66a1.582 1.582 0 0 1-.896.83 1.973 1.973 0 0 1-.683.113c-.205 0-.395-.028-.568-.082a1.564 1.564 0 0 1-.458-.24 1.583 1.583 0 0 1-.341-.345 2.284 2.284 0 0 1-.243-.447 2.555 2.555 0 0 1-.15-.52 3.469 3.469 0 0 1-.049-.584v-.68a3.3 3.3 0 0 1 .048-.561c.032-.18.08-.35.144-.51.068-.177.156-.338.263-.481.11-.146.235-.27.376-.373a1.682 1.682 0 0 1 .981-.297c.262 0 .496.038.7.116.208.077.385.187.53.328.149.144.265.317.35.52.086.202.142.428.167.676h-.82a1.586 1.586 0 0 0-.086-.4.913.913 0 0 0-.171-.307.72.72 0 0 0-.277-.192 1.02 1.02 0 0 0-.393-.068.894.894 0 0 0-.29.044.729.729 0 0 0-.226.127.82.82 0 0 0-.23.26 1.763 1.763 0 0 0-.146.352 2.832 2.832 0 0 0-.089.759v.687c0 .166.01.322.027.468.021.146.052.279.093.4.032.1.072.191.12.273.05.082.109.153.177.212.07.064.152.113.243.147a.98.98 0 0 0 .318.048c.14 0 .266-.02.376-.062a.754.754 0 0 0 .28-.18.864.864 0 0 0 .181-.291c.046-.117.075-.25.089-.4h.824zm1.74.854h2.375V5.5h-3.2V.523h.824v4.3zm5.725-.468h-1.562L30.954 5.5H30.1L31.72.523h.728L34.04 5.5h-.851l-.335-1.145zM31.5 3.651h1.152l-.571-1.969-.581 1.969zm5.735.567a.64.64 0 0 0-.071-.307.797.797 0 0 0-.202-.24 1.612 1.612 0 0 0-.325-.177 3.108 3.108 0 0 0-.413-.147 3.958 3.958 0 0 1-.65-.243 2.393 2.393 0 0 1-.502-.328 1.429 1.429 0 0 1-.328-.417 1.183 1.183 0 0 1-.117-.53c0-.212.046-.402.137-.57.091-.172.214-.317.37-.438a1.63 1.63 0 0 1 .54-.27c.207-.064.424-.096.652-.096.242 0 .466.038.674.113.21.073.391.175.546.307.155.135.277.296.366.482.091.185.137.39.137.616h-.814a1.14 1.14 0 0 0-.082-.342.777.777 0 0 0-.174-.27.822.822 0 0 0-.284-.171 1.026 1.026 0 0 0-.38-.065 1.14 1.14 0 0 0-.348.051.855.855 0 0 0-.273.137.64.64 0 0 0-.246.513.556.556 0 0 0 .089.3.821.821 0 0 0 .229.223c.098.063.21.12.335.167.127.048.26.092.4.133.175.05.346.113.512.188.169.073.324.162.465.267.175.132.316.29.42.475.108.182.161.393.161.632 0 .221-.047.416-.14.585a1.236 1.236 0 0 1-.37.42 1.659 1.659 0 0 1-.546.263 2.467 2.467 0 0 1-1.377-.027 1.862 1.862 0 0 1-.62-.335 1.575 1.575 0 0 1-.385-.482A1.42 1.42 0 0 1 34.478 4h.82c.012.152.044.285.096.4a.782.782 0 0 0 .222.276.901.901 0 0 0 .322.168 1.463 1.463 0 0 0 .758.01.838.838 0 0 0 .284-.133.634.634 0 0 0 .185-.212.579.579 0 0 0 .071-.29zm4.741 1.928h-3.124V5.5h3.124v.646zm4.19-4.31a1.158 1.158 0 0 1-.28.769 1.31 1.31 0 0 1-.424.335c.103.048.197.104.284.167.089.062.166.134.233.216a1.245 1.245 0 0 1 .297.823 1.4 1.4 0 0 1-.127.612 1.257 1.257 0 0 1-.345.445 1.53 1.53 0 0 1-.52.273 2.111 2.111 0 0 1-.635.092c-.233 0-.449-.03-.65-.092a1.492 1.492 0 0 1-.516-.273 1.25 1.25 0 0 1-.348-.441 1.454 1.454 0 0 1-.123-.616c0-.136.018-.266.054-.39.04-.122.094-.236.164-.341.071-.1.155-.19.253-.27.1-.082.212-.152.335-.208a1.236 1.236 0 0 1-.646-.749 1.447 1.447 0 0 1 .062-.94 1.268 1.268 0 0 1 .793-.7 1.93 1.93 0 0 1 .612-.093c.218 0 .42.03.605.092.187.06.35.148.488.267.135.116.24.26.318.434a1.4 1.4 0 0 1 .116.588zm-.707 2.266a.875.875 0 0 0-.062-.335.794.794 0 0 0-.164-.267.764.764 0 0 0-.26-.164.913.913 0 0 0-.33-.058.932.932 0 0 0-.34.058.734.734 0 0 0-.252.164.793.793 0 0 0-.164.267.984.984 0 0 0-.055.338c0 .128.02.243.058.346a.675.675 0 0 0 .42.406c.1.035.214.052.339.052a.925.925 0 0 0 .325-.055.748.748 0 0 0 .26-.157.808.808 0 0 0 .225-.595zm-.106-2.235a.812.812 0 0 0-.198-.544.699.699 0 0 0-.52-.205.742.742 0 0 0-.29.055.627.627 0 0 0-.219.147.65.65 0 0 0-.137.236.958.958 0 0 0-.048.31c0 .112.016.215.048.308.032.091.08.169.144.233a.637.637 0 0 0 .222.154.741.741 0 0 0 .29.054.742.742 0 0 0 .291-.054.667.667 0 0 0 .366-.386.889.889 0 0 0 .051-.308zm5.113 1.736c0 .319-.037.602-.112.848a1.675 1.675 0 0 1-.318.612 1.31 1.31 0 0 1-.506.382 1.715 1.715 0 0 1-.677.127c-.25 0-.476-.042-.677-.127-.2-.086-.37-.214-.509-.383a1.685 1.685 0 0 1-.325-.611 2.985 2.985 0 0 1-.11-.848v-1.18c0-.318.037-.6.11-.843a1.77 1.77 0 0 1 .322-.622c.139-.167.307-.292.505-.376.2-.087.426-.13.677-.13.253 0 .479.043.677.13.2.084.371.21.513.376.136.168.242.375.318.622.075.243.112.525.112.844v1.179zm-2.413-.29 1.583-1.2a1.858 1.858 0 0 0-.075-.462.825.825 0 0 0-.168-.318.596.596 0 0 0-.236-.164.832.832 0 0 0-.31-.054.797.797 0 0 0-.332.065.612.612 0 0 0-.24.191.954.954 0 0 0-.167.373c-.037.15-.055.328-.055.533v1.035zm1.59.427v-.998L48.06 3.935c.011.157.035.296.072.417.038.12.09.22.154.3a.606.606 0 0 0 .236.195.797.797 0 0 0 .331.065c.123 0 .231-.02.325-.061a.661.661 0 0 0 .239-.188.955.955 0 0 0 .167-.376 2.27 2.27 0 0 0 .059-.547zm5.027-.137c0 .319-.037.602-.112.848a1.675 1.675 0 0 1-.318.612 1.31 1.31 0 0 1-.506.382 1.715 1.715 0 0 1-.677.127c-.25 0-.476-.042-.677-.127-.2-.086-.37-.214-.509-.383a1.685 1.685 0 0 1-.325-.611 2.985 2.985 0 0 1-.109-.848v-1.18c0-.318.036-.6.11-.843.075-.247.182-.454.32-.622.14-.167.308-.292.506-.376.201-.087.427-.13.677-.13.253 0 .479.043.677.13.2.084.371.21.513.376.136.168.242.375.318.622.075.243.112.525.112.844v1.179zm-2.413-.29 1.583-1.2a1.858 1.858 0 0 0-.075-.462.825.825 0 0 0-.168-.318.596.596 0 0 0-.236-.164.832.832 0 0 0-.31-.054.797.797 0 0 0-.332.065.612.612 0 0 0-.24.191.954.954 0 0 0-.167.373c-.037.15-.055.328-.055.533v1.035zm1.59.427v-.998l-1.583 1.193c.011.157.035.296.072.417.039.12.09.22.154.3a.606.606 0 0 0 .236.195.797.797 0 0 0 .331.065c.123 0 .231-.02.325-.061a.661.661 0 0 0 .24-.188.956.956 0 0 0 .167-.376c.038-.155.058-.338.058-.547zm5.028-.137c0 .319-.038.602-.113.848a1.675 1.675 0 0 1-.318.612 1.31 1.31 0 0 1-.506.382 1.715 1.715 0 0 1-.677.127c-.25 0-.476-.042-.677-.127-.2-.086-.37-.214-.509-.383a1.685 1.685 0 0 1-.325-.611 2.985 2.985 0 0 1-.109-.848v-1.18c0-.318.036-.6.11-.843.075-.247.182-.454.32-.622.14-.167.308-.292.507-.376.2-.087.426-.13.676-.13.253 0 .479.043.677.13.2.084.371.21.513.376.136.168.242.375.318.622.075.243.113.525.113.844v1.179zm-2.414-.29 1.583-1.2a1.858 1.858 0 0 0-.075-.462.825.825 0 0 0-.168-.318.596.596 0 0 0-.236-.164.832.832 0 0 0-.31-.054.797.797 0 0 0-.332.065.612.612 0 0 0-.24.191.954.954 0 0 0-.167.373c-.036.15-.055.328-.055.533v1.035zm1.59.427v-.998l-1.583 1.193c.012.157.036.296.072.417.039.12.09.22.154.3a.606.606 0 0 0 .236.195.797.797 0 0 0 .331.065c.123 0 .231-.02.325-.061a.661.661 0 0 0 .24-.188.956.956 0 0 0 .167-.376c.038-.155.058-.338.058-.547zm2.498 1.087c.283 0 .523-.032.722-.096.198-.064.36-.155.488-.273a1.2 1.2 0 0 0 .301-.445 2.06 2.06 0 0 0 .123-.543v-.017a1.188 1.188 0 0 1-.66.379 1.434 1.434 0 0 1-.324.034c-.242 0-.453-.045-.633-.137a1.312 1.312 0 0 1-.444-.365 1.594 1.594 0 0 1-.27-.533c-.06-.2-.089-.412-.089-.633 0-.239.035-.463.106-.673.073-.212.178-.398.315-.557a1.47 1.47 0 0 1 .502-.373 1.6 1.6 0 0 1 .684-.14c.257 0 .485.05.683.147.2.098.37.231.51.4.145.182.256.403.331.663a2.9 2.9 0 0 1 .113.814v.287a4.5 4.5 0 0 1-.137 1.12 2.27 2.27 0 0 1-.482.934c-.187.219-.433.39-.738.516-.303.125-.669.188-1.097.188h-.069v-.697h.065zm.824-1.607a.809.809 0 0 0 .506-.17.89.89 0 0 0 .184-.185c.055-.073.1-.152.134-.236v-.284c0-.198-.023-.373-.069-.526a1.24 1.24 0 0 0-.174-.383.768.768 0 0 0-.263-.232.661.661 0 0 0-.321-.082.68.68 0 0 0-.342.085.727.727 0 0 0-.246.226 1.043 1.043 0 0 0-.157.338 1.587 1.587 0 0 0-.003.796.982.982 0 0 0 .15.335.797.797 0 0 0 .246.233c.1.057.218.085.355.085zm2.84-.188L64.48.523h2.676v.725H65.16l-.13 1.193c.082-.048.19-.094.322-.137a1.51 1.51 0 0 1 .461-.065c.235 0 .444.039.629.116.187.078.345.188.475.332.128.146.226.322.294.53.068.205.102.436.102.694 0 .228-.033.443-.099.646a1.43 1.43 0 0 1-.297.526c-.132.15-.3.269-.503.355-.202.087-.442.13-.717.13-.21 0-.41-.03-.602-.089a1.546 1.546 0 0 1-.51-.273 1.44 1.44 0 0 1-.365-.44 1.49 1.49 0 0 1-.16-.613h.796c.03.244.118.431.267.56.15.13.341.196.574.196a.709.709 0 0 0 .608-.287.945.945 0 0 0 .144-.322 1.69 1.69 0 0 0 .048-.413c0-.144-.02-.275-.059-.393a.87.87 0 0 0-.167-.315.746.746 0 0 0-.28-.205.943.943 0 0 0-.39-.075c-.098 0-.183.008-.256.024a.959.959 0 0 0-.188.061.9.9 0 0 0-.157.096c-.046.034-.09.072-.134.113l-.653-.16z"/></svg>