<svg xmlns="http://www.w3.org/2000/svg" width="42" height="42" fill="none"><path fill="#09F" d="m41 11.91-7.792 7.79h-10.91V8.792L30.092 1H41v10.91zm-21.299 7.791V8.792L11.91 1H1v10.39l8.312 8.31h10.39zM9.312 22.299h10.39v10.909L11.908 41H1V30.61l8.312-8.31zm23.896 0h-10.91v10.909L30.092 41H41V30.09l-7.792-7.79z"/><path stroke="#09F" d="m41 11.91-7.792 7.79h-10.91V8.792L30.092 1H41v10.91zm-21.299 7.791V8.792L11.91 1H1v10.39l8.312 8.31h10.39zM9.312 22.299h10.39v10.909L11.908 41H1V30.61l8.312-8.31zm23.896 0h-10.91v10.909L30.092 41H41V30.09l-7.792-7.79z"/></svg>