<svg xmlns="http://www.w3.org/2000/svg" width="60" height="60" fill="none"><path fill="#fff" d="M3 40.195a88.757 88.757 0 0 0 5.633-14.429h2.674a93.037 93.037 0 0 1-5.452 14.43H3zm17.284-20.848-.937 3.061H30.69l.938-3.061H20.284zM11.582 40.49h3.199a47.609 47.609 0 0 0 4.738-10.572h-2.846a40.576 40.576 0 0 1-5.108 10.53l.017.042zm5.58-15.02-.945 3.112h5.426l-3.001 9.853h-1.96l-.947 3.087h5.108l3.939-12.94h5.271l.955-3.113H17.163zm-2.407 2.46.963-3.154h1.987l.946-3.096h-1.97l.86-2.681h-3.276l-.86 2.681H9.148l-.945 3.096h4.3L7.428 41.54h3.19l2.992-9.828 1.127 1.091 1.144-3.755-1.127-1.117zm10.491 2.09a33.159 33.159 0 0 1-1.479 10.58h2.83a38.202 38.202 0 0 0 1.719-10.58h-3.07zm14.902-10.903h-3.482l.095 5.405h3.49l-.102-5.405zm-7.283 7.097-1.006 3.315h2.4l-3.655 12.01 6.165-2.165 1.127-3.713-2.46.846 3.139-10.302-5.71.009zm7.817 15.308 4.256-6.369h-3.44l-4.298 6.37h3.483zm4.076-21.601-3.965 12.991h12.555l3.956-12.991H44.758zm6.294 9.752h-5.976l1.978-6.521h6.02l-1.987 6.52m-3.285 5.456.378 6.369h3.44l-.387-6.37h-3.431z"/></svg>