<svg xmlns="http://www.w3.org/2000/svg" width="148" height="32" fill="none"><path fill="#E2E2E2" fill-opacity=".4" d="M42.133 12h-.942V7.469l-1.457.535V7.18l2.34-.867h.059V12zm3.265-3.266h.559c.167 0 .313-.022.438-.066a.825.825 0 0 0 .308-.195.706.706 0 0 0 .172-.27.978.978 0 0 0 .063-.351c0-.136-.02-.257-.06-.364a.724.724 0 0 0-.163-.273.747.747 0 0 0-.278-.164 1.125 1.125 0 0 0-.378-.059c-.128 0-.246.02-.356.059a.791.791 0 0 0-.469.414.804.804 0 0 0-.066.332h-.934c0-.227.046-.435.137-.625.091-.19.218-.356.379-.496a1.8 1.8 0 0 1 .57-.324 2.17 2.17 0 0 1 .727-.118c.268 0 .514.036.738.106.227.068.42.17.578.305.162.138.287.307.375.507.089.2.133.434.133.7 0 .117-.018.234-.055.351-.033.117-.086.23-.156.34a1.501 1.501 0 0 1-.64.539 1.399 1.399 0 0 1 .722.535c.076.117.13.244.164.38.034.132.051.27.051.413 0 .266-.05.503-.148.711-.097.206-.23.379-.399.52a1.805 1.805 0 0 1-.61.328 2.5 2.5 0 0 1-.753.11c-.245 0-.48-.035-.707-.102a1.777 1.777 0 0 1-.598-.305 1.544 1.544 0 0 1-.414-.5 1.528 1.528 0 0 1-.152-.7h.933a.9.9 0 0 0 .067.348.744.744 0 0 0 .199.266.886.886 0 0 0 .297.176 1.345 1.345 0 0 0 .793.004.81.81 0 0 0 .308-.184.722.722 0 0 0 .184-.281c.044-.115.066-.245.066-.39 0-.165-.024-.306-.074-.423a.76.76 0 0 0-.215-.293.925.925 0 0 0-.34-.168 1.52 1.52 0 0 0-.437-.058h-.559v-.735zm4.805 0h.559c.166 0 .312-.022.437-.066a.825.825 0 0 0 .309-.195.706.706 0 0 0 .172-.27.978.978 0 0 0 .062-.351c0-.136-.02-.257-.058-.364a.725.725 0 0 0-.164-.273.747.747 0 0 0-.278-.164 1.125 1.125 0 0 0-.379-.059c-.127 0-.246.02-.355.059a.79.79 0 0 0-.469.414.804.804 0 0 0-.066.332h-.934c0-.227.046-.435.137-.625a1.5 1.5 0 0 1 .379-.496c.161-.138.351-.246.57-.324a2.17 2.17 0 0 1 .727-.118c.268 0 .514.036.738.106.226.068.42.17.578.305.161.138.286.307.375.507.089.2.133.434.133.7a1.315 1.315 0 0 1-.211.691 1.497 1.497 0 0 1-.64.539 1.399 1.399 0 0 1 .722.535c.075.117.13.244.164.38.034.132.05.27.05.413 0 .266-.049.503-.148.711a1.485 1.485 0 0 1-.398.52 1.805 1.805 0 0 1-.61.328 2.5 2.5 0 0 1-.753.11c-.245 0-.48-.035-.707-.102a1.777 1.777 0 0 1-.598-.305 1.544 1.544 0 0 1-.414-.5 1.527 1.527 0 0 1-.153-.7h.934c0 .126.022.242.066.348a.743.743 0 0 0 .2.266.886.886 0 0 0 .297.176 1.347 1.347 0 0 0 .793.004.81.81 0 0 0 .308-.184.722.722 0 0 0 .184-.281c.044-.115.066-.245.066-.39 0-.165-.025-.306-.074-.423a.76.76 0 0 0-.215-.293.925.925 0 0 0-.34-.168 1.52 1.52 0 0 0-.437-.058h-.559v-.735zm6.887 1.239h.715v.757h-.715V12h-.934v-1.27h-2.46l-.024-.574 2.457-3.844h.96v3.66zm-2.465 0h1.531v-2.41l-.11.203-1.421 2.207zm7.867-3.137L60.22 12h-.985l2.274-4.906h-2.95v-.782h3.934v.524zM63.77 9.18l.304-2.867h3.059v.828h-2.281l-.149 1.363a1.94 1.94 0 0 1 .367-.156c.154-.05.33-.075.528-.075.268 0 .508.045.718.133.214.089.395.215.543.38.146.166.258.368.336.605.078.234.118.498.118.793 0 .26-.038.506-.114.738-.073.229-.186.43-.34.601a1.574 1.574 0 0 1-.574.407 2.08 2.08 0 0 1-.82.148c-.24 0-.469-.034-.688-.101a1.77 1.77 0 0 1-.582-.313 1.647 1.647 0 0 1-.418-.504 1.704 1.704 0 0 1-.183-.7h.91c.034.28.135.493.305.642.172.148.39.222.656.222a.81.81 0 0 0 .695-.328 1.08 1.08 0 0 0 .164-.367c.037-.146.055-.303.055-.473 0-.164-.022-.314-.067-.449a.994.994 0 0 0-.19-.36.852.852 0 0 0-.321-.234 1.078 1.078 0 0 0-.445-.086c-.112 0-.21.01-.293.028a1.043 1.043 0 0 0-.215.07 1.034 1.034 0 0 0-.18.11 1.494 1.494 0 0 0-.152.128l-.747-.183zm8.203-1.367c0 .171-.029.332-.086.48a1.276 1.276 0 0 1-.235.398 1.5 1.5 0 0 1-.484.383c.117.055.225.119.324.192.102.07.19.152.266.246a1.422 1.422 0 0 1 .34.941c0 .263-.049.496-.145.7a1.437 1.437 0 0 1-.394.507 1.75 1.75 0 0 1-.594.313c-.224.07-.466.105-.727.105a2.52 2.52 0 0 1-.742-.105 1.708 1.708 0 0 1-.59-.313 1.43 1.43 0 0 1-.398-.504 1.662 1.662 0 0 1-.14-.703c0-.156.02-.305.062-.445.044-.14.106-.271.187-.39.08-.115.177-.218.29-.31.114-.093.241-.173.382-.238a1.419 1.419 0 0 1-.738-.855 1.654 1.654 0 0 1 .07-1.074 1.449 1.449 0 0 1 .906-.801c.214-.07.447-.106.7-.106.25 0 .48.036.691.106.213.068.4.17.559.305.153.132.274.298.363.496.088.195.133.419.133.671zm-.809 2.59a.997.997 0 0 0-.07-.383.908.908 0 0 0-.188-.305.873.873 0 0 0-.297-.188 1.043 1.043 0 0 0-.378-.066c-.144 0-.273.022-.387.066a.84.84 0 0 0-.29.188.91.91 0 0 0-.187.305 1.125 1.125 0 0 0-.062.386c0 .146.022.278.066.395a.77.77 0 0 0 .192.289.85.85 0 0 0 .289.176c.114.039.243.058.386.058.136 0 .26-.02.371-.062a.853.853 0 0 0 .297-.18.923.923 0 0 0 .188-.289c.047-.115.07-.245.07-.39zm-.121-2.555a.93.93 0 0 0-.227-.621.798.798 0 0 0-.593-.235.848.848 0 0 0-.332.063.718.718 0 0 0-.25.168.742.742 0 0 0-.157.27 1.094 1.094 0 0 0-.054.355c0 .127.018.244.054.351a.693.693 0 0 0 .164.266.73.73 0 0 0 .254.176c.1.041.21.062.332.062a.84.84 0 0 0 .332-.062.764.764 0 0 0 .418-.441c.04-.108.059-.225.059-.352zm2.953 3.382c.323 0 .598-.036.824-.109.227-.073.413-.177.559-.312.156-.149.27-.318.344-.508.073-.193.12-.4.14-.621v-.02a1.356 1.356 0 0 1-.441.328 1.642 1.642 0 0 1-.684.145 1.58 1.58 0 0 1-.722-.156 1.5 1.5 0 0 1-.508-.418 1.819 1.819 0 0 1-.309-.61 2.538 2.538 0 0 1-.101-.722c0-.274.04-.53.12-.77.084-.242.204-.454.36-.637.156-.18.348-.321.574-.425.23-.107.49-.16.782-.16.294 0 .554.055.78.167.23.112.424.265.583.457.166.209.293.461.379.758.086.294.129.604.129.93v.328c0 .448-.052.875-.157 1.281a2.592 2.592 0 0 1-.55 1.067 2.18 2.18 0 0 1-.844.59c-.346.143-.764.214-1.254.214h-.078v-.796h.074zm.942-1.835a.925.925 0 0 0 .578-.196c.08-.06.15-.13.21-.21.063-.084.114-.174.153-.27v-.324c0-.227-.026-.428-.078-.602a1.419 1.419 0 0 0-.2-.438.878.878 0 0 0-.3-.265.755.755 0 0 0-.367-.094.777.777 0 0 0-.391.098.83.83 0 0 0-.281.258 1.239 1.239 0 0 0-.18.386 1.817 1.817 0 0 0-.004.91c.037.144.094.271.172.383.076.11.17.198.281.266a.81.81 0 0 0 .406.098zm3.246-.215.304-2.867h3.059v.828h-2.281l-.149 1.363c.094-.055.216-.107.367-.156.154-.05.33-.075.528-.075.268 0 .507.045.719.133.213.089.394.215.542.38.146.166.258.368.336.605.079.234.118.498.118.793 0 .26-.038.506-.114.738-.073.229-.186.43-.34.601a1.572 1.572 0 0 1-.574.407 2.08 2.08 0 0 1-.82.148c-.24 0-.469-.034-.688-.101a1.768 1.768 0 0 1-.582-.313 1.647 1.647 0 0 1-.418-.504 1.702 1.702 0 0 1-.183-.7h.91c.034.28.135.493.305.642.171.148.39.222.656.222a.81.81 0 0 0 .695-.328c.073-.101.128-.224.164-.367.037-.146.055-.303.055-.473 0-.164-.022-.314-.066-.449a.994.994 0 0 0-.192-.36.853.853 0 0 0-.32-.234 1.078 1.078 0 0 0-.446-.086c-.111 0-.21.01-.292.028a1.043 1.043 0 0 0-.215.07 1.034 1.034 0 0 0-.18.11 1.494 1.494 0 0 0-.152.128l-.746-.183zm8.312.652c0 .365-.043.688-.129.969a1.914 1.914 0 0 1-.363.699 1.498 1.498 0 0 1-.578.438 1.96 1.96 0 0 1-.774.144c-.286 0-.544-.048-.773-.145a1.53 1.53 0 0 1-.582-.437 1.925 1.925 0 0 1-.371-.7 3.414 3.414 0 0 1-.125-.968V8.484c0-.364.041-.686.125-.964a2.04 2.04 0 0 1 .367-.711c.159-.19.351-.334.578-.43.23-.099.487-.149.773-.149.29 0 .547.05.774.149.23.096.424.24.586.43.156.192.277.43.363.71.086.28.13.6.13.965v1.348zM83.738 9.5l1.809-1.371a2.122 2.122 0 0 0-.086-.527.943.943 0 0 0-.192-.364.68.68 0 0 0-.269-.187.951.951 0 0 0-.356-.063.911.911 0 0 0-.378.074.7.7 0 0 0-.274.22 1.09 1.09 0 0 0-.191.425 2.61 2.61 0 0 0-.063.61V9.5zm1.817.488v-1.14l-1.809 1.363c.013.18.04.338.082.476.044.139.103.253.176.344a.694.694 0 0 0 .27.223.91.91 0 0 0 .378.074.91.91 0 0 0 .371-.07.755.755 0 0 0 .274-.215c.086-.11.15-.253.191-.43.045-.177.067-.385.067-.625zm5.652 2.75h-3.57V12h3.57v.738zm4.191-2.203a.73.73 0 0 0-.082-.351.91.91 0 0 0-.23-.274 1.836 1.836 0 0 0-.371-.203 3.548 3.548 0 0 0-.473-.168 4.528 4.528 0 0 1-.742-.277 2.734 2.734 0 0 1-.574-.375 1.63 1.63 0 0 1-.375-.477 1.35 1.35 0 0 1-.133-.605c0-.242.052-.46.156-.653a1.56 1.56 0 0 1 .422-.5 1.91 1.91 0 0 1 .617-.308c.237-.073.486-.11.746-.11.276 0 .533.043.77.13.24.083.448.2.625.35.177.154.316.338.418.552.104.21.156.445.156.703h-.93a1.3 1.3 0 0 0-.093-.39.889.889 0 0 0-.2-.31.938.938 0 0 0-.324-.195A1.172 1.172 0 0 0 94.348 7c-.144 0-.276.02-.399.059a.978.978 0 0 0-.312.156.732.732 0 0 0-.281.586c.002.13.036.245.101.344a.938.938 0 0 0 .262.253c.112.073.24.137.383.192.145.055.298.105.457.152.2.057.395.13.585.215.193.083.37.185.532.305.2.15.36.332.48.543a1.4 1.4 0 0 1 .184.722c0 .253-.053.476-.16.668a1.413 1.413 0 0 1-.422.48c-.18.134-.388.234-.625.302a2.82 2.82 0 0 1-1.574-.032 2.126 2.126 0 0 1-.707-.383 1.8 1.8 0 0 1-.442-.55 1.622 1.622 0 0 1-.164-.727h.938c.013.175.05.327.109.457a.892.892 0 0 0 .254.317c.104.086.226.15.367.191a1.67 1.67 0 0 0 .867.012.957.957 0 0 0 .325-.153.726.726 0 0 0 .21-.242.66.66 0 0 0 .082-.332zm1.98-4.223h3.352v.778h-1.214v4.137h1.214V12h-3.351v-.773h1.187V7.09H97.38v-.777zM105.716 12h-.942l-1.847-3.914-.004 3.914h-.949V6.312h.953l1.836 3.899.008-3.899h.945V12zm4.973-1.75a2.34 2.34 0 0 1-.196.754 1.844 1.844 0 0 1-.41.574 1.807 1.807 0 0 1-.613.375 2.257 2.257 0 0 1-.781.129 2.13 2.13 0 0 1-.649-.094 1.781 1.781 0 0 1-.523-.273 1.798 1.798 0 0 1-.391-.395 2.598 2.598 0 0 1-.277-.511 2.886 2.886 0 0 1-.172-.594 3.907 3.907 0 0 1-.055-.668V8.77c0-.222.018-.435.055-.641a2.9 2.9 0 0 1 .164-.582c.078-.203.178-.387.301-.55.125-.168.268-.31.429-.427.154-.106.323-.19.508-.25.188-.06.392-.09.613-.09.3 0 .567.045.801.133.237.089.439.214.606.375.169.164.302.362.398.594.099.232.163.49.192.773h-.938a1.81 1.81 0 0 0-.098-.457 1.05 1.05 0 0 0-.195-.351.822.822 0 0 0-.316-.219 1.168 1.168 0 0 0-.45-.078c-.122 0-.233.017-.332.05a.828.828 0 0 0-.257.145.923.923 0 0 0-.262.297c-.068.12-.124.254-.168.403-.034.13-.06.27-.078.418a4.117 4.117 0 0 0-.024.449v.785c0 .19.011.368.032.535.023.167.058.319.105.457.036.115.082.219.137.313.057.093.125.174.203.242a.862.862 0 0 0 .277.168c.107.036.228.054.364.054.161 0 .304-.023.429-.07a.869.869 0 0 0 .321-.207c.085-.088.154-.2.207-.332a1.68 1.68 0 0 0 .101-.457h.942zm4.308-.8h-2.351v1.777h2.746V12h-3.688V6.312h3.668v.778h-2.726v1.6h2.351v.758zm5.039 3.288h-3.57V12h3.57v.738zm3.777-.738h-.941V7.469l-1.457.535V7.18l2.34-.867h.058V12zm3.036-.77c.323 0 .597-.036.824-.109a1.47 1.47 0 0 0 .558-.312c.157-.149.271-.318.344-.508.073-.193.12-.4.141-.621v-.02a1.364 1.364 0 0 1-.754.434 1.644 1.644 0 0 1-.371.039c-.276 0-.517-.052-.723-.156a1.507 1.507 0 0 1-.508-.418 1.805 1.805 0 0 1-.308-.61 2.527 2.527 0 0 1-.102-.722c0-.274.041-.53.121-.77.084-.242.203-.454.36-.637.156-.18.347-.321.574-.425.229-.107.489-.16.781-.16.294 0 .555.055.781.167.23.112.424.265.582.457.167.209.293.461.379.758.086.294.129.604.129.93v.328c0 .448-.052.875-.156 1.281a2.591 2.591 0 0 1-.551 1.067c-.213.25-.495.446-.844.59-.346.143-.764.214-1.253.214h-.079v-.796h.075zm.941-1.835a.931.931 0 0 0 .578-.196c.081-.06.151-.13.211-.21a1.2 1.2 0 0 0 .152-.27v-.324a2.11 2.11 0 0 0-.078-.602 1.414 1.414 0 0 0-.199-.438.875.875 0 0 0-.301-.265.753.753 0 0 0-.367-.094.772.772 0 0 0-.39.098.837.837 0 0 0-.282.258 1.215 1.215 0 0 0-.179.386c-.039.146-.059.3-.059.461 0 .156.018.306.055.45.036.143.093.27.172.382.075.11.169.198.281.266.114.065.25.098.406.098zm4.094-.66h.558c.167 0 .313-.023.438-.067a.83.83 0 0 0 .309-.195.709.709 0 0 0 .171-.27.972.972 0 0 0 .063-.351c0-.136-.02-.257-.059-.364a.718.718 0 0 0-.164-.273.746.746 0 0 0-.277-.164 1.128 1.128 0 0 0-.379-.059c-.128 0-.246.02-.355.059a.791.791 0 0 0-.469.414.793.793 0 0 0-.067.332h-.933c0-.227.045-.435.136-.625a1.54 1.54 0 0 1 .379-.496c.162-.138.352-.246.571-.324.221-.079.463-.118.726-.118.268 0 .515.036.739.106.226.068.419.17.578.305.161.138.286.307.375.507.088.2.132.434.132.7a1.302 1.302 0 0 1-.476.992 1.52 1.52 0 0 1-.375.238 1.413 1.413 0 0 1 .723.535c.075.117.13.244.164.38.033.132.05.27.05.413 0 .266-.049.503-.148.711a1.482 1.482 0 0 1-.398.52 1.803 1.803 0 0 1-.61.328c-.232.073-.483.11-.754.11-.245 0-.48-.035-.707-.102a1.77 1.77 0 0 1-.597-.305 1.556 1.556 0 0 1-.415-.5 1.535 1.535 0 0 1-.152-.7h.934c0 .126.022.242.066.348a.744.744 0 0 0 .199.266.9.9 0 0 0 .297.176 1.34 1.34 0 0 0 .793.004.813.813 0 0 0 .309-.184.712.712 0 0 0 .183-.281c.045-.115.067-.245.067-.39 0-.165-.025-.306-.074-.423a.773.773 0 0 0-.215-.293.925.925 0 0 0-.34-.168 1.52 1.52 0 0 0-.438-.058h-.558v-.735zM139.32 12h-3.816v-.648l1.851-2.016c.154-.17.283-.32.387-.453.104-.136.189-.26.254-.371.063-.112.107-.216.133-.313a1.075 1.075 0 0 0-.016-.66.766.766 0 0 0-.445-.465.89.89 0 0 0-.352-.066c-.166 0-.311.023-.433.07a.805.805 0 0 0-.305.2.878.878 0 0 0-.187.331 1.398 1.398 0 0 0-.063.438h-.937c0-.248.045-.48.136-.7.091-.22.222-.413.391-.577.167-.165.37-.295.609-.391.243-.096.512-.145.809-.145.279 0 .527.04.746.121.221.081.408.193.559.336.148.144.261.316.339.516.079.198.118.417.118.656 0 .18-.03.354-.09.524a2.48 2.48 0 0 1-.238.496c-.105.164-.228.33-.372.496-.14.167-.294.338-.46.516l-1.266 1.351h2.648V12zM41.438 22.434l1.105-2.122h1.102l-1.622 2.82L43.683 26H42.59l-1.137-2.156L40.32 26h-1.11l1.665-2.867-1.621-2.82h1.098l1.086 2.12zm4.804 0 1.106-2.122h1.101l-1.62 2.82L48.488 26h-1.094l-1.137-2.156L45.125 26h-1.11l1.665-2.867-1.621-2.82h1.097l1.086 2.12zm3.973 2.793h2.715V26h-3.657v-5.688h.942v4.915zM97.938 26l-1.75-5.688h1.027l1.082 3.938.094.34.097-.344 1.09-3.933h1.024L98.852 26h-.915zm7.14-5.164L102.805 26h-.985l2.274-4.906h-2.949v-.782h3.933v.524zm4.676.977a1.33 1.33 0 0 1-.32.878 1.5 1.5 0 0 1-.485.383c.117.055.225.119.324.192.102.07.191.152.266.246a1.42 1.42 0 0 1 .34.941c0 .263-.048.496-.145.7a1.43 1.43 0 0 1-.394.507 1.745 1.745 0 0 1-.594.313c-.224.07-.466.105-.726.105-.266 0-.513-.035-.743-.105a1.703 1.703 0 0 1-.589-.313 1.418 1.418 0 0 1-.399-.504 1.657 1.657 0 0 1-.141-.703c0-.156.021-.305.063-.445.044-.14.107-.271.187-.39.081-.115.178-.218.29-.31a1.78 1.78 0 0 1 .382-.238 1.435 1.435 0 0 1-.574-.504 1.367 1.367 0 0 1-.223-.753c0-.253.043-.477.129-.672a1.453 1.453 0 0 1 .907-.801c.213-.07.446-.106.699-.106.25 0 .48.035.691.106.214.068.4.17.559.305.153.132.275.298.363.496.089.195.133.419.133.672zm-.809 2.59a1 1 0 0 0-.07-.383.915.915 0 0 0-.187-.305.887.887 0 0 0-.297-.188 1.047 1.047 0 0 0-.379-.066c-.144 0-.272.022-.387.066a.843.843 0 0 0-.289.188.917.917 0 0 0-.188.305 1.142 1.142 0 0 0-.062.386c0 .146.022.278.066.395a.783.783 0 0 0 .481.465c.114.039.243.058.387.058.135 0 .259-.02.371-.062a.866.866 0 0 0 .297-.18.927.927 0 0 0 .257-.68zm-.121-2.555a.942.942 0 0 0-.226-.621.8.8 0 0 0-.594-.235.849.849 0 0 0-.332.063.717.717 0 0 0-.25.168.731.731 0 0 0-.156.27 1.08 1.08 0 0 0-.055.355c0 .127.018.244.055.351a.686.686 0 0 0 .164.266c.07.075.155.134.254.176a.845.845 0 0 0 .332.062c.122 0 .233-.02.332-.062a.766.766 0 0 0 .418-.441c.039-.108.058-.225.058-.352zm4.985-1.563v.793h-.063c-.31 0-.579.043-.808.129a1.59 1.59 0 0 0-.946.895 2.32 2.32 0 0 0-.16.68c.063-.071.135-.139.219-.204a1.456 1.456 0 0 1 .597-.297c.118-.031.241-.047.372-.047.276 0 .515.052.718.157.206.104.375.244.508.422.136.177.234.38.297.609.065.229.098.467.098.715 0 .27-.042.524-.125.761a1.694 1.694 0 0 1-.938 1.031 1.925 1.925 0 0 1-.777.15c-.3 0-.567-.058-.801-.173a1.776 1.776 0 0 1-.594-.465 2.077 2.077 0 0 1-.39-.714 2.821 2.821 0 0 1-.133-.872v-.386c0-.459.058-.895.176-1.309.119-.416.317-.775.593-1.074.235-.258.524-.456.868-.594a3.143 3.143 0 0 1 1.179-.207h.11zm-1.02 2.707a1.07 1.07 0 0 0-.601.191 1.174 1.174 0 0 0-.368.47v.288c0 .227.025.426.075.598.052.172.122.315.21.43a.925.925 0 0 0 .309.261.81.81 0 0 0 .375.09.864.864 0 0 0 .391-.086.916.916 0 0 0 .293-.242 1.1 1.1 0 0 0 .183-.367c.042-.143.063-.298.063-.465 0-.159-.021-.308-.063-.45a1.116 1.116 0 0 0-.176-.374.82.82 0 0 0-.292-.25.822.822 0 0 0-.399-.094zm6.574-1.18c0 .172-.028.332-.086.481a1.255 1.255 0 0 1-.234.398 1.513 1.513 0 0 1-.484.383c.117.055.225.119.324.192.101.07.19.152.265.246a1.406 1.406 0 0 1 .34.941c0 .263-.048.496-.144.7a1.443 1.443 0 0 1-.395.507 1.745 1.745 0 0 1-.594.313c-.223.07-.466.105-.726.105-.266 0-.513-.035-.742-.105a1.707 1.707 0 0 1-.59-.313 1.44 1.44 0 0 1-.399-.504 1.672 1.672 0 0 1-.14-.703c0-.156.021-.305.062-.445.045-.14.107-.271.188-.39.081-.115.177-.218.289-.31.114-.093.242-.173.383-.238a1.409 1.409 0 0 1-.739-.855 1.653 1.653 0 0 1 .071-1.074c.088-.196.209-.361.363-.496a1.48 1.48 0 0 1 .543-.305c.214-.07.447-.106.699-.106.25 0 .481.035.692.106.213.068.399.17.558.305.154.132.275.298.363.496.089.195.133.419.133.672zm-.808 2.59a1 1 0 0 0-.071-.383.899.899 0 0 0-.187-.304.868.868 0 0 0-.297-.188 1.047 1.047 0 0 0-.379-.066c-.143 0-.272.022-.387.066a.843.843 0 0 0-.289.188.915.915 0 0 0-.187.305 1.118 1.118 0 0 0-.063.386c0 .146.022.278.067.395a.77.77 0 0 0 .191.289.853.853 0 0 0 .289.176 1.2 1.2 0 0 0 .387.058c.135 0 .259-.02.371-.062a.848.848 0 0 0 .297-.18.91.91 0 0 0 .187-.289c.047-.115.071-.245.071-.39zm-.121-2.554a.922.922 0 0 0-.227-.621.8.8 0 0 0-.594-.235.849.849 0 0 0-.332.063.727.727 0 0 0-.25.168.745.745 0 0 0-.156.27 1.107 1.107 0 0 0-.055.355c0 .127.019.244.055.351a.686.686 0 0 0 .164.266c.07.075.155.134.254.176.099.041.21.062.332.062.122 0 .233-.02.332-.062a.766.766 0 0 0 .418-.441c.039-.108.059-.225.059-.352zm3.183.886h.559c.166 0 .312-.022.437-.066a.83.83 0 0 0 .309-.195.711.711 0 0 0 .172-.27.993.993 0 0 0 .062-.351c0-.136-.019-.257-.058-.364a.731.731 0 0 0-.164-.273.75.75 0 0 0-.278-.164 1.12 1.12 0 0 0-.379-.059c-.127 0-.246.02-.355.059a.786.786 0 0 0-.277.16.77.77 0 0 0-.192.254.809.809 0 0 0-.066.332h-.934c0-.227.046-.435.137-.625.091-.19.217-.356.379-.496a1.79 1.79 0 0 1 .57-.324c.221-.079.464-.118.727-.118.268 0 .514.035.738.106.226.068.419.17.578.305.161.138.286.307.375.507.089.2.133.434.133.7 0 .117-.018.234-.055.351a1.302 1.302 0 0 1-.422.64 1.485 1.485 0 0 1-.375.239 1.39 1.39 0 0 1 .723.535c.075.117.13.244.164.38.034.132.051.27.051.413 0 .266-.05.503-.149.711a1.482 1.482 0 0 1-.398.52 1.808 1.808 0 0 1-.609.328c-.232.073-.484.11-.754.11-.245 0-.481-.035-.707-.102a1.776 1.776 0 0 1-.598-.305 1.54 1.54 0 0 1-.414-.5 1.522 1.522 0 0 1-.152-.7h.933c0 .126.022.241.067.348a.88.88 0 0 0 .496.441 1.347 1.347 0 0 0 .793.005.808.808 0 0 0 .308-.184.725.725 0 0 0 .184-.281c.044-.115.066-.245.066-.39 0-.165-.025-.306-.074-.423a.762.762 0 0 0-.215-.293.926.926 0 0 0-.34-.168 1.52 1.52 0 0 0-.437-.058h-.559v-.735zm7.485-1.898L126.828 26h-.984l2.273-4.906h-2.949v-.782h3.934v.524zm3.925-.55v.792h-.062a2.3 2.3 0 0 0-.809.129 1.576 1.576 0 0 0-.945.895 2.32 2.32 0 0 0-.16.68c.062-.071.135-.139.219-.204a1.456 1.456 0 0 1 .597-.297c.117-.031.241-.047.371-.047.276 0 .516.052.719.157.206.104.375.244.508.422.135.177.234.38.297.609.065.229.097.467.097.715 0 .27-.041.524-.125.761a1.694 1.694 0 0 1-.937 1.031 1.928 1.928 0 0 1-.777.15 1.756 1.756 0 0 1-1.395-.637 2.096 2.096 0 0 1-.391-.715 2.85 2.85 0 0 1-.132-.872v-.386c0-.459.058-.895.175-1.309.12-.416.318-.775.594-1.074.234-.258.524-.456.867-.594a3.148 3.148 0 0 1 1.18-.207h.109zm-1.019 2.706a1 1 0 0 0-.32.051 1.09 1.09 0 0 0-.282.14 1.175 1.175 0 0 0-.367.469v.29c0 .226.025.425.074.597.052.172.123.315.211.43a.925.925 0 0 0 .309.261.81.81 0 0 0 .375.09.857.857 0 0 0 .39-.086.895.895 0 0 0 .293-.242 1.1 1.1 0 0 0 .184-.367c.042-.143.063-.298.063-.465 0-.159-.021-.308-.063-.45a1.135 1.135 0 0 0-.176-.374.823.823 0 0 0-.293-.25.816.816 0 0 0-.398-.094zm4.125-2.68.703 2.434.777-2.433h1.168V26h-.883v-1.93l.055-2.539-.875 2.715h-.488l-.793-2.621.051 2.445V26h-.879v-5.688h1.164z"/><path stroke="#E2E2E2" stroke-opacity=".4" d="M.5.5h25v31H.5zm31 0h116v31h-116z"/><path stroke="#E2E2E2" stroke-opacity=".4" d="M11 13.25H7.737L12.5 5l4.763 8.25H13.5"/></svg>