<svg xmlns="http://www.w3.org/2000/svg" width="50" height="22" fill="none"><path fill="#E2E2E2" fill-opacity=".4" d="M3.648 1.675 1.92 0v13.586l1.728 1.117V1.675zm.96 11.911V0l1.536 1.675v13.028l-1.536-1.117zm3.072 0V.558l1.152 1.117v13.028L7.68 13.586zm4.031-11.911L10.56.558v13.028l1.152 1.117V1.675zm2.304 11.911V.558l1.344 1.117v13.028l-1.344-1.117zm2.304 0V.558l1.728 1.117v13.028l-1.728-1.117zm2.88 0V.558l1.536 1.117v13.028l-1.536-1.117zm2.88 0V1.303l1.727.93v12.47l-1.727-1.117zm3.071-.372V.558l1.152.745v13.4l-1.152-1.489zm2.88 0V3.164l1.536 1.117v10.422l-1.536-1.489zm2.88 0V.558l1.728 1.117v13.028l-1.728-1.489zm2.88.931V.558h.384v13.587h-.384zm1.344 0V.558h.576v13.587h-.576zm1.536 0V.558l.767.373v13.214h-.767zm3.071-.559V.558l2.304 1.117v13.028h-.96l-1.344-1.117zm2.689 0V.558l1.919 1.117v13.028l-1.92-1.117zm3.07 0V.931l.96.744v12.47l-.96-.559zM3.427 17.657c.2-.19.428-.285.683-.285h1.496c.01 0 .017.004.022.012a.025.025 0 0 1 .012.022v3.686c0 .008-.004.015-.012.023-.005.005-.012.007-.022.007H4.92a.04.04 0 0 1-.023-.007.04.04 0 0 1-.007-.023v-3.075h-.627a.315.315 0 0 0-.225.094l-3.022 3.004a.04.04 0 0 1-.022.007H.037c-.015 0-.025-.006-.03-.019-.005-.012-.002-.023.008-.033l3.412-3.413zm8.312.788v.052c0 .293-.103.543-.308.75.205.208.308.458.308.75v.056c0 .295-.105.548-.315.758-.21.207-.463.311-.758.311H6.414a.046.046 0 0 1-.026-.007.04.04 0 0 1-.007-.023v-3.686c0-.01.002-.017.007-.022a.036.036 0 0 1 .026-.012h4.252c.295 0 .548.105.758.315.21.21.315.463.315.758zm-4.609-.428v.912h3.536a.307.307 0 0 0 .226-.094.313.313 0 0 0 .097-.229v-.27a.301.301 0 0 0-.098-.225.307.307 0 0 0-.225-.094H7.13zm3.859 2.141v-.266a.305.305 0 0 0-.098-.229.307.307 0 0 0-.225-.093H7.13v.91h3.536a.307.307 0 0 0 .226-.093.305.305 0 0 0 .097-.229zm2.244-1.822v.266c0 .09.032.166.094.229a.307.307 0 0 0 .225.094h3.218c.294 0 .546.105.753.315.21.207.315.46.315.757v.053c0 .295-.105.547-.315.757a1.02 1.02 0 0 1-.753.315h-4.043a.04.04 0 0 1-.022-.007.046.046 0 0 1-.008-.027v-.577c0-.01.003-.018.008-.023a.032.032 0 0 1 .022-.01h4.043a.307.307 0 0 0 .224-.095.307.307 0 0 0 .094-.225v-.27a.307.307 0 0 0-.094-.225.301.301 0 0 0-.224-.097h-3.218a1.04 1.04 0 0 1-.757-.311 1.039 1.039 0 0 1-.311-.758v-.056c0-.295.103-.546.31-.754.21-.21.463-.315.758-.315h4.043c.007 0 .013.004.018.012.008.005.012.01.012.018v.581c0 .008-.004.015-.012.023a.025.025 0 0 1-.018.008h-4.043a.307.307 0 0 0-.225.093.311.311 0 0 0-.094.229zm5.346-.93a.03.03 0 0 1 .008-.022c.007-.008.015-.012.022-.012h5.295a.02.02 0 0 1 .018.012.025.025 0 0 1 .012.022v.578c0 .007-.004.014-.012.022a.025.025 0 0 1-.018.008H21.63v3.074c0 .01-.003.02-.01.027a.026.026 0 0 1-.02.007h-.686a.046.046 0 0 1-.026-.007.046.046 0 0 1-.008-.027v-3.075h-2.27a.04.04 0 0 1-.022-.007.04.04 0 0 1-.008-.023v-.577zm11.45 1.414a1.049 1.049 0 0 1-.63.975l.015.03.597 1.252c.002.01 0 .02-.004.03-.005.01-.014.015-.026.015h-.762c-.012 0-.022-.006-.03-.019l-.577-1.21h-3.187v1.2c0 .007-.004.014-.012.022-.005.005-.012.007-.022.007h-.686a.04.04 0 0 1-.023-.007.04.04 0 0 1-.007-.023v-3.686c0-.01.002-.017.007-.022.008-.008.015-.012.023-.012h4.256c.295 0 .546.105.753.315.21.208.315.46.315.758v.375zm-4.604.427h3.536a.307.307 0 0 0 .225-.093.312.312 0 0 0 .093-.23v-.588a.307.307 0 0 0-.093-.225.307.307 0 0 0-.225-.094h-3.536v1.23zm8.772-1.59c.2-.19.428-.285.683-.285h1.496c.01 0 .018.004.023.012a.025.025 0 0 1 .01.022v3.686c0 .008-.003.015-.01.023-.005.005-.013.007-.023.007h-.686a.04.04 0 0 1-.023-.007.04.04 0 0 1-.007-.023v-3.075h-.626a.315.315 0 0 0-.225.094l-3.022 3.004a.04.04 0 0 1-.023.007h-.956c-.015 0-.025-.006-.03-.019-.005-.012-.003-.023.007-.033l3.412-3.413zm4.026 2.824h4.252c.01 0 .018.004.023.011.007.005.011.011.011.019v.577c0 .01-.004.02-.011.027-.005.005-.013.007-.023.007h-4.252c-.297 0-.551-.104-.76-.311a1.043 1.043 0 0 1-.312-.761v-1.605c0-.298.104-.55.311-.758.21-.21.464-.315.761-.315h4.252c.01 0 .018.004.023.012a.025.025 0 0 1 .011.022v.578c0 .007-.004.014-.011.022a.032.032 0 0 1-.023.008h-4.252a.305.305 0 0 0-.228.097.307.307 0 0 0-.094.225v1.822a.32.32 0 0 0 .322.323zm5.03-3.075a.03.03 0 0 1 .008-.022c.008-.008.015-.012.023-.012h5.294c.008 0 .014.004.02.012.007.005.01.012.01.022v.578c0 .007-.003.014-.01.022a.026.026 0 0 1-.02.008h-2.272v3.074c0 .01-.004.02-.011.027a.025.025 0 0 1-.019.007h-.686a.046.046 0 0 1-.026-.007.046.046 0 0 1-.008-.027v-3.075h-2.272a.04.04 0 0 1-.023-.007.04.04 0 0 1-.007-.023v-.577z"/></svg>